<mxfile host="app.diagrams.net" agent="Mozilla/5.0 (Windows NT 10.0; Win64; x64) AppleWebKit/537.36 (KHTML, like Gecko) Chrome/138.0.0.0 Safari/537.36 SberBrowser/30.0.0.0" version="28.1.2">
  <diagram name="Страница — 1" id="Y4MIFBuTrKKS9_ojG3ff">
    <mxGraphModel dx="980" dy="622" grid="1" gridSize="10" guides="1" tooltips="1" connect="1" arrows="1" fold="1" page="1" pageScale="1" pageWidth="1169" pageHeight="827" math="0" shadow="0">
      <root>
        <mxCell id="0" />
        <mxCell id="1" parent="0" />
        <mxCell id="WZa0pHhK_UFrK1QcMr-N-15" value="1" style="edgeStyle=orthogonalEdgeStyle;rounded=0;orthogonalLoop=1;jettySize=auto;html=1;endArrow=none;endFill=0;" edge="1" parent="1" source="WZa0pHhK_UFrK1QcMr-N-1" target="WZa0pHhK_UFrK1QcMr-N-11">
          <mxGeometry relative="1" as="geometry" />
        </mxCell>
        <mxCell id="WZa0pHhK_UFrK1QcMr-N-17" value="1" style="edgeStyle=orthogonalEdgeStyle;rounded=0;orthogonalLoop=1;jettySize=auto;html=1;endArrow=none;endFill=0;" edge="1" parent="1" source="WZa0pHhK_UFrK1QcMr-N-1" target="WZa0pHhK_UFrK1QcMr-N-8">
          <mxGeometry relative="1" as="geometry" />
        </mxCell>
        <mxCell id="WZa0pHhK_UFrK1QcMr-N-1" value="Филиал" style="rounded=1;arcSize=10;whiteSpace=wrap;html=1;align=center;" vertex="1" parent="1">
          <mxGeometry x="130" y="140" width="100" height="40" as="geometry" />
        </mxCell>
        <mxCell id="WZa0pHhK_UFrK1QcMr-N-2" value="Прокат велосипедов" style="text;html=1;align=center;verticalAlign=middle;whiteSpace=wrap;rounded=0;fontSize=23;" vertex="1" parent="1">
          <mxGeometry x="430" y="20" width="312" height="30" as="geometry" />
        </mxCell>
        <mxCell id="WZa0pHhK_UFrK1QcMr-N-3" value="&lt;font style=&quot;font-size: 16px;&quot;&gt;Нотация Чена&lt;/font&gt;" style="text;html=1;align=center;verticalAlign=middle;whiteSpace=wrap;rounded=0;fontSize=18;" vertex="1" parent="1">
          <mxGeometry x="110" y="20" width="130" height="30" as="geometry" />
        </mxCell>
        <mxCell id="WZa0pHhK_UFrK1QcMr-N-4" value="&lt;font style=&quot;font-size: 16px;&quot;&gt;Нотация Мартина&lt;/font&gt;" style="text;html=1;align=center;verticalAlign=middle;whiteSpace=wrap;rounded=0;fontSize=18;" vertex="1" parent="1">
          <mxGeometry x="810" y="20" width="190" height="30" as="geometry" />
        </mxCell>
        <mxCell id="WZa0pHhK_UFrK1QcMr-N-5" value="Клиент" style="rounded=1;arcSize=10;whiteSpace=wrap;html=1;align=center;" vertex="1" parent="1">
          <mxGeometry x="130" y="480" width="100" height="40" as="geometry" />
        </mxCell>
        <mxCell id="WZa0pHhK_UFrK1QcMr-N-6" value="Город" style="rounded=1;arcSize=10;whiteSpace=wrap;html=1;align=center;" vertex="1" parent="1">
          <mxGeometry x="430" y="140" width="100" height="40" as="geometry" />
        </mxCell>
        <mxCell id="WZa0pHhK_UFrK1QcMr-N-7" value="Марка" style="rounded=1;arcSize=10;whiteSpace=wrap;html=1;align=center;" vertex="1" parent="1">
          <mxGeometry x="430" y="310" width="100" height="40" as="geometry" />
        </mxCell>
        <mxCell id="WZa0pHhK_UFrK1QcMr-N-18" value="N" style="edgeStyle=orthogonalEdgeStyle;rounded=0;orthogonalLoop=1;jettySize=auto;html=1;endArrow=none;endFill=0;" edge="1" parent="1" source="WZa0pHhK_UFrK1QcMr-N-8" target="WZa0pHhK_UFrK1QcMr-N-6">
          <mxGeometry relative="1" as="geometry" />
        </mxCell>
        <mxCell id="WZa0pHhK_UFrK1QcMr-N-8" value="Находится" style="shape=rhombus;perimeter=rhombusPerimeter;whiteSpace=wrap;html=1;align=center;" vertex="1" parent="1">
          <mxGeometry x="270" y="130" width="120" height="60" as="geometry" />
        </mxCell>
        <mxCell id="WZa0pHhK_UFrK1QcMr-N-13" value="N" style="edgeStyle=orthogonalEdgeStyle;rounded=0;orthogonalLoop=1;jettySize=auto;html=1;endArrow=none;endFill=0;" edge="1" parent="1" source="WZa0pHhK_UFrK1QcMr-N-9" target="WZa0pHhK_UFrK1QcMr-N-12">
          <mxGeometry relative="1" as="geometry" />
        </mxCell>
        <mxCell id="WZa0pHhK_UFrK1QcMr-N-9" value="Велосипед" style="rounded=1;arcSize=10;whiteSpace=wrap;html=1;align=center;" vertex="1" parent="1">
          <mxGeometry x="130" y="310" width="100" height="40" as="geometry" />
        </mxCell>
        <mxCell id="WZa0pHhK_UFrK1QcMr-N-22" value="M" style="edgeStyle=orthogonalEdgeStyle;rounded=0;orthogonalLoop=1;jettySize=auto;html=1;endArrow=none;endFill=0;" edge="1" parent="1" source="WZa0pHhK_UFrK1QcMr-N-10" target="WZa0pHhK_UFrK1QcMr-N-9">
          <mxGeometry relative="1" as="geometry" />
        </mxCell>
        <mxCell id="WZa0pHhK_UFrK1QcMr-N-23" value="M" style="edgeStyle=orthogonalEdgeStyle;rounded=0;orthogonalLoop=1;jettySize=auto;html=1;endArrow=none;endFill=0;" edge="1" parent="1" source="WZa0pHhK_UFrK1QcMr-N-10" target="WZa0pHhK_UFrK1QcMr-N-5">
          <mxGeometry relative="1" as="geometry" />
        </mxCell>
        <mxCell id="WZa0pHhK_UFrK1QcMr-N-10" value="Арендует" style="shape=associativeEntity;whiteSpace=wrap;html=1;align=center;" vertex="1" parent="1">
          <mxGeometry x="110" y="390" width="140" height="60" as="geometry" />
        </mxCell>
        <mxCell id="WZa0pHhK_UFrK1QcMr-N-16" value="N" style="edgeStyle=orthogonalEdgeStyle;rounded=0;orthogonalLoop=1;jettySize=auto;html=1;endArrow=none;endFill=0;" edge="1" parent="1" source="WZa0pHhK_UFrK1QcMr-N-11" target="WZa0pHhK_UFrK1QcMr-N-9">
          <mxGeometry relative="1" as="geometry" />
        </mxCell>
        <mxCell id="WZa0pHhK_UFrK1QcMr-N-11" value="Принадлежит" style="shape=rhombus;perimeter=rhombusPerimeter;whiteSpace=wrap;html=1;align=center;" vertex="1" parent="1">
          <mxGeometry x="120" y="220" width="120" height="60" as="geometry" />
        </mxCell>
        <mxCell id="WZa0pHhK_UFrK1QcMr-N-14" value="1" style="edgeStyle=orthogonalEdgeStyle;rounded=0;orthogonalLoop=1;jettySize=auto;html=1;endArrow=none;endFill=0;" edge="1" parent="1" source="WZa0pHhK_UFrK1QcMr-N-12" target="WZa0pHhK_UFrK1QcMr-N-7">
          <mxGeometry relative="1" as="geometry" />
        </mxCell>
        <mxCell id="WZa0pHhK_UFrK1QcMr-N-12" value="Является" style="shape=rhombus;perimeter=rhombusPerimeter;whiteSpace=wrap;html=1;align=center;" vertex="1" parent="1">
          <mxGeometry x="270" y="300" width="120" height="60" as="geometry" />
        </mxCell>
        <mxCell id="WZa0pHhK_UFrK1QcMr-N-20" value="N" style="edgeStyle=orthogonalEdgeStyle;rounded=0;orthogonalLoop=1;jettySize=auto;html=1;endArrow=none;endFill=0;" edge="1" parent="1" source="WZa0pHhK_UFrK1QcMr-N-19" target="WZa0pHhK_UFrK1QcMr-N-6">
          <mxGeometry relative="1" as="geometry" />
        </mxCell>
        <mxCell id="WZa0pHhK_UFrK1QcMr-N-21" value="N" style="edgeStyle=orthogonalEdgeStyle;rounded=0;orthogonalLoop=1;jettySize=auto;html=1;endArrow=none;endFill=0;" edge="1" parent="1" source="WZa0pHhK_UFrK1QcMr-N-19" target="WZa0pHhK_UFrK1QcMr-N-7">
          <mxGeometry relative="1" as="geometry" />
        </mxCell>
        <mxCell id="WZa0pHhK_UFrK1QcMr-N-19" value="Аренда стоит" style="shape=associativeEntity;whiteSpace=wrap;html=1;align=center;" vertex="1" parent="1">
          <mxGeometry x="410" y="220" width="140" height="60" as="geometry" />
        </mxCell>
        <mxCell id="WZa0pHhK_UFrK1QcMr-N-41" value="" style="edgeStyle=orthogonalEdgeStyle;rounded=0;orthogonalLoop=1;jettySize=auto;html=1;endArrow=none;endFill=0;" edge="1" parent="1" source="WZa0pHhK_UFrK1QcMr-N-24" target="WZa0pHhK_UFrK1QcMr-N-1">
          <mxGeometry relative="1" as="geometry">
            <Array as="points">
              <mxPoint x="180" y="110" />
            </Array>
          </mxGeometry>
        </mxCell>
        <mxCell id="WZa0pHhK_UFrK1QcMr-N-24" value="Наименование" style="ellipse;whiteSpace=wrap;html=1;align=center;" vertex="1" parent="1">
          <mxGeometry x="40" y="90" width="100" height="40" as="geometry" />
        </mxCell>
        <mxCell id="WZa0pHhK_UFrK1QcMr-N-38" value="" style="edgeStyle=orthogonalEdgeStyle;rounded=0;orthogonalLoop=1;jettySize=auto;html=1;endArrow=none;endFill=0;" edge="1" parent="1" source="WZa0pHhK_UFrK1QcMr-N-25" target="WZa0pHhK_UFrK1QcMr-N-9">
          <mxGeometry relative="1" as="geometry">
            <Array as="points">
              <mxPoint x="90" y="320" />
            </Array>
          </mxGeometry>
        </mxCell>
        <mxCell id="WZa0pHhK_UFrK1QcMr-N-25" value="Номер" style="ellipse;whiteSpace=wrap;html=1;align=center;" vertex="1" parent="1">
          <mxGeometry x="40" y="260" width="100" height="40" as="geometry" />
        </mxCell>
        <mxCell id="WZa0pHhK_UFrK1QcMr-N-33" value="" style="edgeStyle=orthogonalEdgeStyle;rounded=0;orthogonalLoop=1;jettySize=auto;html=1;endArrow=none;endFill=0;" edge="1" parent="1" source="WZa0pHhK_UFrK1QcMr-N-26" target="WZa0pHhK_UFrK1QcMr-N-7">
          <mxGeometry relative="1" as="geometry">
            <Array as="points">
              <mxPoint x="500" y="390" />
            </Array>
          </mxGeometry>
        </mxCell>
        <mxCell id="WZa0pHhK_UFrK1QcMr-N-26" value="Наименование" style="ellipse;whiteSpace=wrap;html=1;align=center;" vertex="1" parent="1">
          <mxGeometry x="380" y="370" width="100" height="40" as="geometry" />
        </mxCell>
        <mxCell id="WZa0pHhK_UFrK1QcMr-N-39" value="" style="edgeStyle=orthogonalEdgeStyle;rounded=0;orthogonalLoop=1;jettySize=auto;html=1;endArrow=none;endFill=0;" edge="1" parent="1" source="WZa0pHhK_UFrK1QcMr-N-27" target="WZa0pHhK_UFrK1QcMr-N-5">
          <mxGeometry relative="1" as="geometry">
            <Array as="points">
              <mxPoint x="180" y="550" />
            </Array>
          </mxGeometry>
        </mxCell>
        <mxCell id="WZa0pHhK_UFrK1QcMr-N-27" value="ФИО" style="ellipse;whiteSpace=wrap;html=1;align=center;" vertex="1" parent="1">
          <mxGeometry x="40" y="530" width="100" height="40" as="geometry" />
        </mxCell>
        <mxCell id="WZa0pHhK_UFrK1QcMr-N-40" style="edgeStyle=orthogonalEdgeStyle;rounded=0;orthogonalLoop=1;jettySize=auto;html=1;endArrow=none;endFill=0;" edge="1" parent="1" source="WZa0pHhK_UFrK1QcMr-N-28" target="WZa0pHhK_UFrK1QcMr-N-5">
          <mxGeometry relative="1" as="geometry">
            <Array as="points">
              <mxPoint x="180" y="580" />
            </Array>
          </mxGeometry>
        </mxCell>
        <mxCell id="WZa0pHhK_UFrK1QcMr-N-28" value="Платежные реквизиты" style="ellipse;whiteSpace=wrap;html=1;align=center;" vertex="1" parent="1">
          <mxGeometry x="40" y="560" width="100" height="40" as="geometry" />
        </mxCell>
        <mxCell id="WZa0pHhK_UFrK1QcMr-N-37" value="" style="edgeStyle=orthogonalEdgeStyle;rounded=0;orthogonalLoop=1;jettySize=auto;html=1;endArrow=none;endFill=0;" edge="1" parent="1" source="WZa0pHhK_UFrK1QcMr-N-29" target="WZa0pHhK_UFrK1QcMr-N-19">
          <mxGeometry relative="1" as="geometry" />
        </mxCell>
        <mxCell id="WZa0pHhK_UFrK1QcMr-N-29" value="Стоимость часа" style="ellipse;whiteSpace=wrap;html=1;align=center;" vertex="1" parent="1">
          <mxGeometry x="290" y="230" width="100" height="40" as="geometry" />
        </mxCell>
        <mxCell id="WZa0pHhK_UFrK1QcMr-N-35" value="" style="edgeStyle=orthogonalEdgeStyle;rounded=0;orthogonalLoop=1;jettySize=auto;html=1;endArrow=none;endFill=0;" edge="1" parent="1" source="WZa0pHhK_UFrK1QcMr-N-30" target="WZa0pHhK_UFrK1QcMr-N-10">
          <mxGeometry relative="1" as="geometry" />
        </mxCell>
        <mxCell id="WZa0pHhK_UFrK1QcMr-N-30" value="Продолжительн" style="ellipse;whiteSpace=wrap;html=1;align=center;" vertex="1" parent="1">
          <mxGeometry x="310" y="430" width="100" height="40" as="geometry" />
        </mxCell>
        <mxCell id="WZa0pHhK_UFrK1QcMr-N-36" value="" style="edgeStyle=orthogonalEdgeStyle;rounded=0;orthogonalLoop=1;jettySize=auto;html=1;endArrow=none;endFill=0;" edge="1" parent="1" source="WZa0pHhK_UFrK1QcMr-N-31" target="WZa0pHhK_UFrK1QcMr-N-10">
          <mxGeometry relative="1" as="geometry">
            <Array as="points">
              <mxPoint x="280" y="480" />
              <mxPoint x="280" y="420" />
            </Array>
          </mxGeometry>
        </mxCell>
        <mxCell id="WZa0pHhK_UFrK1QcMr-N-31" value="Стоимость услуги" style="ellipse;whiteSpace=wrap;html=1;align=center;" vertex="1" parent="1">
          <mxGeometry x="310" y="460" width="100" height="40" as="geometry" />
        </mxCell>
        <mxCell id="WZa0pHhK_UFrK1QcMr-N-42" value="" style="edgeStyle=orthogonalEdgeStyle;rounded=0;orthogonalLoop=1;jettySize=auto;html=1;endArrow=none;endFill=0;" edge="1" parent="1" source="WZa0pHhK_UFrK1QcMr-N-32" target="WZa0pHhK_UFrK1QcMr-N-6">
          <mxGeometry relative="1" as="geometry" />
        </mxCell>
        <mxCell id="WZa0pHhK_UFrK1QcMr-N-32" value="Название" style="ellipse;whiteSpace=wrap;html=1;align=center;" vertex="1" parent="1">
          <mxGeometry x="390" y="70" width="100" height="40" as="geometry" />
        </mxCell>
      </root>
    </mxGraphModel>
  </diagram>
</mxfile>
